# xmcd
#
# Track frame offsets:
#	150
#	13942
#	26904
#	39211
#	50082
#	61987
#	77893
#	93346
#	107368
#	121903
#	134381
#	144687
#	159545
#	169601
#
# Disc length: 2461 seconds
#
# Revision: 0
# Processed by: cddbd v1.4PL0 Copyright (c) Steve Scherf et al.
# Submitted via: audiograbber 1.81.03
#
DISCID=b8099b0e
DTITLE=Various Artist - More Rowdy Country
DYEAR=1985
DGENRE=Country
TTITLE0=Waylon Jennings - Good-Hearted Woman
TTITLE1=Willie Nelson - Midnight Rider
TTITLE2=Johnny Paycheck - Take This Job And Shove It
TTITLE3=Johnny Bush - Whiskey River
TTITLE4=Johnny Russell - Workin' Man Blues
TTITLE5=Vern Gosdin - Dim Lights, Thick Smoke
TTITLE6=Earl Thomas Conley - Your Love's On The Line
TTITLE7=Alabama - Tennessee River
TTITLE8=David Allen Coe - The Ride
TTITLE9=Johnny Russell - Red Necks, White Socks And Blue Ribbon Beer
TTITLE10=Jim Ed Brown - Pop A Top
TTITLE11=Johnny Paycheck - I'm The Only Hell My Mama Ever Raised
TTITLE12=Moe Bandy And Joe Stampley - Drinkin' Dancin'
TTITLE13=Jerry Reed - She Got The Goldmine
EXTD=c. 1985 RCA/Ariola International TMK(s) by RCA Corporation\np. and c. K-tel 
EXTD=International Inc
EXTT0=
EXTT1=
EXTT2=
EXTT3=
EXTT4=
EXTT5=
EXTT6=
EXTT7=
EXTT8=
EXTT9=
EXTT10=
EXTT11=
EXTT12=
EXTT13=
PLAYORDER=
